<?xml version="1.0" standalone="no"?>
<!DOCTYPE svg PUBLIC "-//W3C//DTD SVG 20010904//EN"
 "http://www.w3.org/TR/2001/REC-SVG-20010904/DTD/svg10.dtd">
<svg version="1.0" xmlns="http://www.w3.org/2000/svg"
 width="512.000000pt" height="512.000000pt" viewBox="0 0 512.000000 512.000000"
 preserveAspectRatio="xMidYMid meet">
<metadata>
Created by potrace 1.11, written by Peter Selinger 2001-2013
</metadata>
<g transform="translate(0.000000,512.000000) scale(0.100000,-0.100000)"
fill="#000000" stroke="none">
<path d="M904 5105 c-114 -36 -212 -118 -265 -221 l-34 -68 0 -2255 0 -2256
26 -55 c54 -116 176 -214 297 -239 38 -8 513 -11 1645 -11 1368 0 1599 2 1640
15 118 35 225 127 275 233 l27 57 0 2256 0 2255 -34 68 c-43 83 -121 157 -211
200 l-65 31 -1630 2 c-1302 1 -1638 -2 -1671 -12z m3307 -217 c41 -18 82 -65
74 -85 -2 -8 0 -11 5 -8 6 3 11 -2 11 -12 6 -76 3 -4399 -3 -4437 -8 -55 -35
-91 -88 -115 -32 -14 -193 -16 -1635 -17 -1715 -1 -1666 -3 -1712 48 -50 56
-48 -82 -48 2288 -1 1575 2 2224 10 2247 19 55 60 90 120 103 17 3 750 6 1630
5 1446 0 1603 -2 1636 -17z"/>
<path d="M1310 4449 c-33 -7 -61 -31 -73 -63 -13 -34 -9 -1000 4 -1029 27 -60
-40 -57 1325 -57 l1248 0 33 23 c19 13 35 34 39 51 8 38 7 980 -1 1009 -9 29
-53 67 -79 68 -105 5 -2473 2 -2496 -2z m2369 -572 l1 -363 -145 0 c-90 0
-142 3 -138 9 4 6 1 7 -8 1 -21 -13 -571 -14 -588 0 -10 7 -13 7 -8 0 9 -15
-785 -15 -795 0 -5 8 -8 8 -8 0 0 -7 -87 -10 -272 -10 l-273 1 -3 363 -2 362
1119 0 1120 0 0 -363z"/>
<path d="M1375 2708 c-76 -44 -78 -149 -3 -190 31 -16 395 -16 426 1 75 40 69
163 -9 190 -44 15 -387 14 -414 -1z"/>
<path d="M2353 2710 c-29 -12 -63 -67 -63 -103 0 -17 12 -41 33 -64 l34 -36
193 -1 c217 -1 238 4 265 61 21 44 13 92 -21 124 -25 24 -30 24 -222 26 -108
1 -207 -2 -219 -7z"/>
<path d="M3325 2708 c-72 -42 -78 -139 -10 -184 23 -15 53 -17 221 -17 180 0
197 1 222 20 62 46 57 142 -9 175 -29 15 -62 18 -219 18 -121 -1 -192 -5 -205
-12z"/>
<path d="M1394 1922 c4 -7 1 -12 -7 -12 -19 0 -65 -51 -67 -75 -5 -45 1 -66
29 -97 l29 -33 193 -1 c106 -1 205 3 220 8 26 9 67 71 63 96 -1 6 -2 19 -3 27
0 8 -14 29 -30 47 l-29 33 -189 1 c-104 0 -195 4 -203 9 -9 5 -11 4 -6 -3z"/>
<path d="M2355 1905 c-73 -41 -84 -133 -22 -179 26 -19 42 -21 220 -22 207 -1
230 3 261 50 20 31 20 56 2 101 -23 54 -42 59 -231 60 -94 1 -175 4 -180 7 -6
3 -28 -5 -50 -17z"/>
<path d="M3587 1923 c-4 -3 -64 -7 -133 -7 l-126 -2 -29 -32 c-43 -48 -42
-102 2 -147 l29 -30 204 0 c201 0 205 0 230 24 50 47 51 114 2 160 -20 19 -38
24 -89 26 -36 1 -69 5 -75 9 -5 3 -12 3 -15 -1z"/>
<path d="M1386 1105 c-83 -27 -93 -150 -14 -191 33 -17 368 -20 416 -3 80 28
86 149 10 190 -29 16 -367 19 -412 4z"/>
<path d="M2400 1112 c-103 -12 -145 -116 -74 -183 25 -23 30 -24 220 -27 223
-4 243 1 270 60 14 32 15 44 5 76 -21 68 -41 75 -230 76 -91 0 -177 0 -191 -2z"/>
<path d="M3337 1105 c-34 -11 -65 -48 -71 -85 -5 -35 27 -94 59 -108 35 -16
384 -17 419 0 75 33 77 150 4 189 -28 15 -368 18 -411 4z"/>
</g>
</svg>
